<svg width="12" height="16" fill="none" xmlns="http://www.w3.org/2000/svg"><defs><clipPath id="a"><path fill="#fff" fill-opacity="0" d="M0 0h12v16H0z"/></clipPath></defs><g clip-path="url(#a)" fill="#151618"><path d="M7.6.23c-.13.14-.41.43-.65.65-.76.73-.92.99-.94 1.59-.01.48.1.85.38 1.27.08.11.15.2.15.19 0-.01-.05-.12-.11-.23-.22-.45-.29-.99-.17-1.38.12-.36.28-.58.85-1.11.11-.11.26-.26.32-.33l.12-.13-.02.55c-.01.38-.03.63-.06.77-.09.45-.28.8-.63 1.2-.25.28-.32.44-.26.58.01.02.03.12.05.22l.01.17-.15.1c-.51.35-.87.84-1.02 1.4-.04.15-.05.29-.05.52-.01.5.08.91.31 1.42l.12.28-.04.21c-.04.22-.06.86-.02 1.03.01.06.03.08.1.08h.07l.02-.35c.07-1.22.48-1.94 1.42-2.5.73-.44.94-.69 1.43-1.63.38-.76.5-.96.8-1.34l.16-.22-.23.11c-.38.16-.93.33-1.6.47-.63.15-.92.23-1.14.34a.52.52 0 0 1-.14.06c-.01 0-.01-.1 0-.24.01-.28.01-.29.42-.72.23-.23.32-.35.4-.5.16-.34.18-.44.16-1.09-.02-.62.01-1.02.12-1.46.03-.12.05-.21.04-.21 0-.01-.1.1-.22.23Zm1.22 4.18c-.53.99-.91 1.41-1.76 1.99-.16.11-.36.26-.43.32-.26.21-.56.64-.68.97-.02.07-.05.13-.06.12-.04-.07-.15-.61-.18-.87-.09-.84.22-1.57.87-2.07.37-.28.71-.41 1.4-.54.29-.05.75-.19.95-.28.05-.01.08-.03.09-.03 0 .01-.09.18-.2.39ZM2.94.9c.16.6.2 1.39.13 2.12-.1.92-.02 1.2.54 1.96.16.2.33.46.39.58.17.35.26.85.26 1.45v.24l-.06-.02c-.15-.06-.41-.08-1.08-.1-.39-.01-.79-.02-.9-.03-.09-.02-.18-.02-.18-.02-.01 0 .04.04.11.1.3.21.6.49.95.88.2.23.45.48.55.55.41.34.89.53 1.46.6.24.03.15-.06-.25-.23-.64-.29-.96-.52-1.45-1.04-.18-.2-.41-.41-.49-.47l-.16-.11h.31c.81 0 1.28.16 1.67.58.19.2.33.46.4.74.02.08.05.16.06.17.02.02.02-.32-.01-.5a1.48 1.48 0 0 0-.72-1l-.15-.08v-.44c0-.88-.08-1.18-.48-1.86-.53-.91-.62-1.27-.6-2.53.01-.39.01-.71.02-.71 0 .01.05.08.11.17.07.09.3.35.53.59.54.57.75.89.88 1.39.14.54.02 1.3-.32 2.03-.06.14-.11.25-.11.25.01 0 .05-.06.11-.15.41-.63.62-1.34.59-2-.02-.36-.09-.65-.24-.96-.16-.33-.33-.56-.84-1.09-.4-.42-.67-.73-.96-1.07L2.9.75l.04.15Z"/><path d="M7.68 7.44c-.6.13-1.01.67-1.01 1.34 0 .13-.01.14-.09.17-.13.04-.03.07.39.09.61.02.99-.05 1.31-.25.08-.06.3-.24.49-.4.37-.32.56-.46.87-.63l.21-.11-.25-.02c-.14-.01-.39-.04-.55-.07-.17-.03-.43-.08-.58-.1-.33-.06-.56-.07-.79-.02Zm.88.33c.13.04.33.07.44.08l.21.02-.29.23c-.44.36-.73.52-1.11.61-.19.05-1.04.18-1.06.16-.02-.02.05-.26.15-.46.16-.34.46-.58.85-.68.19-.05.5-.03.81.04Zm-6.79 2.58c-.03 1.44.04 1.93.4 2.65.19.38.49.83.71 1.04.05.05.1.09.1.1 0 .01-.66.02-1.47.01-.81 0-1.49 0-1.53.01-.03.01-.07.05-.09.08-.02.06-.02.08.02.12.05.05.08.05 5.99.05 4.05 0 5.96 0 6-.02.07-.04.07-.18 0-.22-.04-.01-.58-.02-1.6-.02H8.76l.16-.2c.46-.55.76-1.15.96-1.92.06-.21.06-.3.07-1.38l.01-1.14H1.79l-.02.84Zm-1.1 4.43c.89.42 2.28.77 3.57.89.23.03.33.05.29.06-.06.01-.06.01-.02.02.03 0 .21.01.4.03.97.07 3.05.03 3-.06.01 0 .07-.01.11-.02.08-.02.08-.02-.03-.03-.06 0 .07-.03.33-.08.81-.13 1.48-.3 2.03-.5.31-.12.91-.38.96-.42.01-.01-2.06-.03-5.44-.02H.4l.27.13Z"/></g></svg>