<svg width="12.000000" height="16.000000" viewBox="0 0 12 16" fill="none" xmlns="http://www.w3.org/2000/svg" xmlns:xlink="http://www.w3.org/1999/xlink">
	<desc>
			Created with Pixso.
	</desc>
	<defs>
		<clipPath id="clip86_497">
			<rect id="svg" width="12.000000" height="16.000000" fill="white" fill-opacity="0"/>
		</clipPath>
	</defs>
	<g clip-path="url(#clip86_497)">
		<path id="Vector" d="M7.6 0.23C7.47 0.37 7.19 0.66 6.95 0.88C6.19 1.61 6.03 1.87 6.01 2.47C6 2.95 6.11 3.32 6.39 3.74C6.47 3.85 6.54 3.94 6.54 3.93C6.54 3.92 6.49 3.81 6.43 3.7C6.21 3.25 6.14 2.71 6.26 2.32C6.38 1.96 6.54 1.74 7.11 1.21C7.22 1.1 7.37 0.95 7.43 0.88L7.55 0.75L7.53 1.3C7.52 1.68 7.5 1.93 7.47 2.07C7.38 2.52 7.19 2.87 6.84 3.27C6.59 3.55 6.52 3.71 6.58 3.85C6.59 3.87 6.61 3.97 6.63 4.07L6.64 4.24L6.49 4.34C5.98 4.69 5.62 5.18 5.47 5.74C5.43 5.89 5.42 6.03 5.42 6.26C5.41 6.76 5.5 7.17 5.73 7.68L5.85 7.96L5.81 8.17C5.77 8.39 5.75 9.03 5.79 9.2C5.8 9.26 5.82 9.28 5.89 9.28L5.96 9.28L5.98 8.93C6.05 7.71 6.46 6.99 7.4 6.43C8.13 5.99 8.34 5.74 8.83 4.8C9.21 4.04 9.33 3.84 9.63 3.46L9.79 3.24L9.56 3.35C9.18 3.51 8.63 3.68 7.96 3.82C7.33 3.97 7.04 4.05 6.82 4.16C6.75 4.2 6.69 4.22 6.68 4.22C6.67 4.22 6.67 4.12 6.68 3.98C6.69 3.7 6.69 3.69 7.1 3.26C7.33 3.03 7.42 2.91 7.5 2.76C7.66 2.42 7.68 2.32 7.66 1.67C7.64 1.05 7.67 0.65 7.78 0.21C7.81 0.09 7.83 0 7.82 9.15e-5C7.82 -0.01 7.72 0.1 7.6 0.23ZM8.82 4.41C8.29 5.4 7.91 5.82 7.06 6.4C6.9 6.51 6.7 6.66 6.63 6.72C6.37 6.93 6.07 7.36 5.95 7.69C5.93 7.76 5.9 7.82 5.89 7.81C5.85 7.74 5.74 7.2 5.71 6.94C5.62 6.1 5.93 5.37 6.58 4.87C6.95 4.59 7.29 4.46 7.98 4.33C8.27 4.28 8.73 4.14 8.93 4.05C8.98 4.04 9.01 4.02 9.02 4.02C9.02 4.03 8.93 4.2 8.82 4.41Z" fill="#151618" fill-opacity="1.000000" fill-rule="nonzero"/>
		<path id="Vector" d="M2.94 0.9C3.1 1.5 3.14 2.29 3.07 3.02C2.97 3.94 3.05 4.22 3.61 4.98C3.77 5.18 3.94 5.44 4 5.56C4.17 5.91 4.26 6.41 4.26 7.01L4.26 7.25L4.2 7.23C4.05 7.17 3.79 7.15 3.12 7.13C2.73 7.12 2.33 7.11 2.22 7.1C2.13 7.08 2.04 7.08 2.04 7.08C2.03 7.08 2.08 7.12 2.15 7.18C2.45 7.39 2.75 7.67 3.1 8.06C3.3 8.29 3.55 8.54 3.65 8.61C4.06 8.95 4.54 9.14 5.11 9.21C5.35 9.24 5.26 9.15 4.86 8.98C4.22 8.69 3.9 8.46 3.41 7.94C3.23 7.74 3 7.53 2.92 7.47L2.76 7.36L3.07 7.36C3.88 7.36 4.35 7.52 4.74 7.94C4.93 8.14 5.07 8.4 5.14 8.68C5.16 8.76 5.19 8.84 5.2 8.85C5.22 8.87 5.22 8.53 5.19 8.35C5.13 7.96 4.82 7.53 4.47 7.35L4.32 7.27L4.32 6.83C4.32 5.95 4.24 5.65 3.84 4.97C3.31 4.06 3.22 3.7 3.24 2.44C3.25 2.05 3.25 1.73 3.26 1.73C3.26 1.74 3.31 1.81 3.37 1.9C3.44 1.99 3.67 2.25 3.9 2.49C4.44 3.06 4.65 3.38 4.78 3.88C4.92 4.42 4.8 5.18 4.46 5.91C4.4 6.05 4.35 6.16 4.35 6.16C4.36 6.16 4.4 6.1 4.46 6.01C4.87 5.38 5.08 4.67 5.05 4.01C5.03 3.65 4.96 3.36 4.81 3.05C4.65 2.72 4.48 2.49 3.97 1.96C3.57 1.54 3.3 1.23 3.01 0.89L2.9 0.75L2.94 0.9Z" fill="#151618" fill-opacity="1.000000" fill-rule="nonzero"/>
		<path id="Vector" d="M7.68 7.44C7.08 7.57 6.67 8.11 6.67 8.78C6.67 8.91 6.66 8.92 6.58 8.95C6.45 8.99 6.55 9.02 6.97 9.04C7.58 9.06 7.96 8.99 8.28 8.79C8.36 8.73 8.58 8.55 8.77 8.39C9.14 8.07 9.33 7.93 9.64 7.76L9.85 7.65L9.6 7.63C9.46 7.62 9.21 7.59 9.05 7.56C8.88 7.53 8.62 7.48 8.47 7.46C8.14 7.4 7.91 7.39 7.68 7.44ZM8.56 7.77C8.69 7.81 8.89 7.84 9 7.85L9.21 7.87L8.92 8.1C8.48 8.46 8.19 8.62 7.81 8.71C7.62 8.76 6.77 8.89 6.75 8.87C6.73 8.85 6.8 8.61 6.9 8.41C7.06 8.07 7.36 7.83 7.75 7.73C7.94 7.68 8.25 7.7 8.56 7.77Z" fill="#151618" fill-opacity="1.000000" fill-rule="nonzero"/>
		<path id="Vector" d="M1.77 10.35C1.74 11.79 1.81 12.28 2.17 13C2.36 13.38 2.66 13.83 2.88 14.04C2.93 14.09 2.98 14.13 2.98 14.14C2.98 14.15 2.32 14.16 1.51 14.15C0.7 14.15 0.02 14.15 -0.02 14.16C-0.05 14.17 -0.09 14.21 -0.11 14.24C-0.13 14.3 -0.13 14.32 -0.09 14.36C-0.04 14.41 -0.01 14.41 5.9 14.41C9.95 14.41 11.86 14.41 11.9 14.39C11.97 14.35 11.97 14.21 11.9 14.17C11.86 14.16 11.32 14.15 10.3 14.15L8.76 14.15L8.92 13.95C9.38 13.4 9.68 12.8 9.88 12.03C9.94 11.82 9.94 11.73 9.95 10.65L9.96 9.51L5.88 9.51L1.79 9.51L1.77 10.35Z" fill="#151618" fill-opacity="1.000000" fill-rule="nonzero"/>
		<path id="Vector" d="M0.67 14.78C1.56 15.2 2.95 15.55 4.24 15.67C4.47 15.7 4.57 15.72 4.53 15.73C4.47 15.74 4.47 15.74 4.51 15.75C4.54 15.75 4.72 15.76 4.91 15.78C5.88 15.85 7.96 15.81 7.91 15.72C7.92 15.72 7.98 15.71 8.02 15.7C8.1 15.68 8.1 15.68 7.99 15.67C7.93 15.67 8.06 15.64 8.32 15.59C9.13 15.46 9.8 15.29 10.35 15.09C10.66 14.97 11.26 14.71 11.31 14.67C11.32 14.66 9.25 14.64 5.87 14.65L0.4 14.65L0.67 14.78Z" fill="#151618" fill-opacity="1.000000" fill-rule="nonzero"/>
	</g>
</svg>
