<svg width="10" height="12" fill="none" xmlns="http://www.w3.org/2000/svg"><g clip-path="url(#a)"><path d="M8.483.934C7.939.303 6.955.032 5.696.032H2.043a.518.518 0 0 0-.34.128.535.535 0 0 0-.177.321L.005 10.294a.317.317 0 0 0 .31.37H2.57l.567-3.655-.018.114a.524.524 0 0 1 .515-.449h1.072c2.105 0 3.753-.87 4.235-3.386.014-.074.027-.147.037-.218-.06-.032-.06-.032 0 0 .144-.93 0-1.563-.495-2.136Z" fill="#27346A"/><path d="M4 2.735a.452.452 0 0 1 .197-.045h2.864c.34 0 .655.023.945.07a3.913 3.913 0 0 1 .576.14c.142.048.275.105.396.17.144-.93 0-1.563-.495-2.136C7.938.303 6.955.032 5.696.032H2.043a.526.526 0 0 0-.517.45L.005 10.293a.317.317 0 0 0 .31.369H2.57l1.175-7.58A.47.47 0 0 1 4 2.735Z" fill="#27346A"/><path d="M8.941 3.288c-.481 2.516-2.13 3.386-4.235 3.386H3.634a.524.524 0 0 0-.515.449l-.704 4.544a.278.278 0 0 0 .27.323h1.902c.109 0 .214-.04.297-.112a.467.467 0 0 0 .154-.28l.019-.1.358-2.31.023-.127a.467.467 0 0 1 .155-.281.453.453 0 0 1 .297-.112h.284c1.842 0 3.284-.76 3.706-2.962.175-.92.085-1.688-.38-2.227a1.82 1.82 0 0 0-.521-.409 6.074 6.074 0 0 1-.038.218Z" fill="#2790C3"/><path d="M8.475 2.866a3.47 3.47 0 0 0-.469-.106 5.844 5.844 0 0 0-.945-.07H4.198a.458.458 0 0 0-.452.393l-.609 3.926-.017.114a.524.524 0 0 1 .514-.449h1.072c2.105 0 3.754-.87 4.236-3.386.014-.074.026-.147.037-.218a2.576 2.576 0 0 0-.504-.204" fill="#1F264F"/></g><defs><clipPath id="a"><path fill="#fff" d="M0 0h10v12H0z"/></clipPath></defs></svg>